<svg width="147" height="167" viewBox="0 0 147 167" fill="none" xmlns="http://www.w3.org/2000/svg">
<path fill-rule="evenodd" clip-rule="evenodd" d="M52.4769 40.6874C53.1337 39.2617 53.9029 38.1541 54.4113 37.5702C54.4213 38.9475 54.209 40.183 53.8803 41.2568C54.8917 41.7447 55.9427 42.4279 56.947 43.3705C56.1731 43.3471 54.8377 43.1597 53.3452 42.6736C52.6571 44.1908 51.7874 45.2384 51.2172 45.7261C51.2559 44.4492 51.5245 43.2255 51.9019 42.1217C50.8353 41.6491 49.7546 41.0153 48.791 40.1765C49.5363 40.0891 50.8959 40.1621 52.4769 40.6874Z" fill="url(#paint0_linear)"/>
<path fill-rule="evenodd" clip-rule="evenodd" d="M47.2855 26.4047C47.7227 25.4557 48.2347 24.7185 48.5731 24.3298C48.5797 25.2466 48.4384 26.069 48.2196 26.7837C48.8928 27.1085 49.5924 27.5632 50.2609 28.1907C49.7458 28.1751 48.8569 28.0503 47.8635 27.7268C47.4055 28.7367 46.8266 29.434 46.447 29.7586C46.4727 28.9087 46.6516 28.0942 46.9028 27.3594C46.1928 27.0448 45.4734 26.6229 44.8321 26.0646C45.3281 26.0065 46.2331 26.055 47.2855 26.4047Z" fill="url(#paint1_linear)"/>
<path fill-rule="evenodd" clip-rule="evenodd" d="M33.2348 12.2071C33.8916 10.7814 34.6609 9.67386 35.1692 9.0899C35.1792 10.4673 34.9669 11.7027 34.6382 12.7765C35.6496 13.2644 36.7006 13.9476 37.7049 14.8902C36.931 14.8668 35.5957 14.6794 34.1031 14.1933C33.4151 15.7105 32.5454 16.7581 31.9751 17.2458C32.0138 15.969 32.2824 14.7452 32.6598 13.6414C31.5932 13.1688 30.5125 12.5349 29.549 11.6962C30.2942 11.6088 31.6539 11.6818 33.2348 12.2071Z" fill="url(#paint2_linear)"/>
<path fill-rule="evenodd" clip-rule="evenodd" d="M31.0085 44.1723C31.9747 42.0747 33.1065 40.4453 33.8544 39.5861C33.8691 41.6125 33.5567 43.4302 33.0731 45.01C34.5611 45.7278 36.1075 46.7329 37.585 48.1198C36.4465 48.0854 34.4818 47.8096 32.2859 47.0944C31.2737 49.3266 29.9941 50.8678 29.1552 51.5854C29.212 49.7068 29.6073 47.9065 30.1625 46.2824C28.5933 45.5871 27.0033 44.6546 25.5857 43.4206C26.6822 43.2921 28.6825 43.3995 31.0085 44.1723Z" fill="url(#paint3_linear)"/>
<circle cx="36.8215" cy="29.8161" r="0.846528" transform="rotate(21.3865 36.8215 29.8161)" fill="#2F235A"/>
<circle cx="57.7817" cy="19.1722" r="0.846528" transform="rotate(21.3865 57.7817 19.1722)" fill="#FE9076"/>
<circle cx="17.5467" cy="23.7964" r="0.846528" transform="rotate(21.3865 17.5467 23.7964)" fill="#FFA400"/>
<circle cx="35.7246" cy="57.8818" r="0.846528" transform="rotate(21.3865 35.7246 57.8818)" fill="#23BB86"/>
<path d="M57.1387 15.1261C56.3151 11.9807 53.3425 4.78681 48.0405 1.17528" stroke="#FE9076" stroke-width="0.736823" stroke-linecap="round"/>
<path d="M15.0482 20.3814C12.9989 17.8569 7.32029 12.5333 0.999998 11.4343" stroke="#FFA400" stroke-width="0.736823" stroke-linecap="round"/>
<path d="M32.1225 59.112C30.3064 59.7743 25.7347 61.8848 21.9763 65.0281" stroke="#23BB86" stroke-width="0.736823" stroke-linecap="round"/>
<path fill-rule="evenodd" clip-rule="evenodd" d="M94.4274 40.6874C93.7707 39.2617 93.0014 38.1541 92.493 37.5702C92.4831 38.9475 92.6954 40.183 93.0241 41.2568C92.0127 41.7447 90.9616 42.4279 89.9574 43.3705C90.7312 43.3471 92.0666 43.1597 93.5591 42.6736C94.2472 44.1908 95.1169 45.2384 95.6871 45.7261C95.6485 44.4492 95.3798 43.2255 95.0024 42.1217C96.069 41.6491 97.1498 41.0153 98.1133 40.1765C97.368 40.0891 96.0084 40.1621 94.4274 40.6874Z" fill="url(#paint4_linear)"/>
<path fill-rule="evenodd" clip-rule="evenodd" d="M99.6188 26.4047C99.1817 25.4557 98.6696 24.7185 98.3313 24.3298C98.3246 25.2466 98.4659 26.069 98.6847 26.7837C98.0115 27.1085 97.3119 27.5632 96.6434 28.1907C97.1585 28.1751 98.0474 28.0503 99.0409 27.7268C99.4988 28.7367 100.078 29.434 100.457 29.7586C100.432 28.9087 100.253 28.0942 100.002 27.3594C100.712 27.0448 101.431 26.6229 102.072 26.0646C101.576 26.0065 100.671 26.055 99.6188 26.4047Z" fill="url(#paint5_linear)"/>
<path fill-rule="evenodd" clip-rule="evenodd" d="M113.669 12.2071C113.013 10.7814 112.243 9.67386 111.735 9.0899C111.725 10.4673 111.937 11.7027 112.266 12.7765C111.255 13.2644 110.204 13.9476 109.199 14.8902C109.973 14.8668 111.309 14.6794 112.801 14.1933C113.489 15.7105 114.359 16.7581 114.929 17.2458C114.891 15.969 114.622 14.7452 114.244 13.6414C115.311 13.1688 116.392 12.5349 117.355 11.6962C116.61 11.6088 115.25 11.6818 113.669 12.2071Z" fill="url(#paint6_linear)"/>
<path fill-rule="evenodd" clip-rule="evenodd" d="M115.896 44.1723C114.93 42.0747 113.798 40.4453 113.05 39.5861C113.035 41.6125 113.348 43.4302 113.831 45.01C112.343 45.7278 110.797 46.7329 109.319 48.1198C110.458 48.0854 112.423 47.8096 114.618 47.0944C115.631 49.3266 116.91 50.8678 117.749 51.5854C117.692 49.7068 117.297 47.9065 116.742 46.2824C118.311 45.5871 119.901 44.6546 121.319 43.4206C120.222 43.2921 118.222 43.3995 115.896 44.1723Z" fill="url(#paint7_linear)"/>
<circle r="0.846528" transform="matrix(-0.931142 0.364658 0.364658 0.931142 110.083 29.8161)" fill="#2F235A"/>
<circle r="0.846528" transform="matrix(-0.931142 0.364658 0.364658 0.931142 89.1226 19.1722)" fill="#FE9076"/>
<circle r="0.846528" transform="matrix(-0.931142 0.364658 0.364658 0.931142 129.358 23.7964)" fill="#FFA400"/>
<circle r="0.846528" transform="matrix(-0.931142 0.364658 0.364658 0.931142 111.18 57.8818)" fill="#23BB86"/>
<path d="M89.7657 15.1261C90.5892 11.9807 93.5618 4.78681 98.8638 1.17528" stroke="#FE9076" stroke-width="0.736823" stroke-linecap="round"/>
<path d="M131.856 20.3814C133.905 17.8569 139.584 12.5333 145.904 11.4343" stroke="#FFA400" stroke-width="0.736823" stroke-linecap="round"/>
<path d="M114.782 59.112C116.598 59.7743 121.17 61.8848 124.928 65.0281" stroke="#23BB86" stroke-width="0.736823" stroke-linecap="round"/>
<rect x="27.9873" y="104.439" width="89.8505" height="62.1103" fill="url(#paint8_linear)"/>
<mask id="mask0" mask-type="alpha" maskUnits="userSpaceOnUse" x="27" y="104" width="91" height="63">
<rect x="27.9873" y="104.439" width="89.8505" height="62.1103" fill="#C4C4C4"/>
</mask>
<g mask="url(#mask0)">
<path d="M32.2387 102.858L93.4206 102.858L79.5921 126.869L18.4101 126.869L32.2387 102.858Z" fill="black" fill-opacity="0.07"/>
<rect x="89.0892" y="104.439" width="89.8505" height="62.1103" fill="url(#paint9_linear)"/>
</g>
<path d="M27.9079 104.439L89.0899 104.439L77.2713 124.162L16.0894 124.162L27.9079 104.439Z" fill="url(#paint10_linear)"/>
<mask id="mask1" mask-type="alpha" maskUnits="userSpaceOnUse" x="89" y="104" width="29" height="63">
<rect x="89.0898" y="104.439" width="28.7479" height="62.1103" fill="#C4C4C4"/>
</mask>
<g mask="url(#mask1)">
<path d="M114.338 104.336L85.545 104.336L99.0742 127.043L127.867 127.043L114.338 104.336Z" fill="black" fill-opacity="0.07"/>
</g>
<path d="M117.883 104.439L89.0898 104.439L100.908 124.162L129.701 124.162L117.883 104.439Z" fill="url(#paint11_linear)"/>
<circle cx="59.8382" cy="87.2411" r="8.49082" fill="url(#paint12_linear)"/>
<circle cx="86.2385" cy="75.8913" r="8.20473" fill="url(#paint13_linear)"/>
<circle cx="68.329" cy="54.9853" r="6.61631" fill="url(#paint14_linear)"/>
<circle cx="90.7398" cy="53.9868" r="1.65" fill="#FFA800" fill-opacity="0.23"/>
<circle cx="79.6838" cy="91.4905" r="1.65" fill="#FFA800" fill-opacity="0.23"/>
<circle cx="52.5896" cy="66.0365" r="1.65" fill="#FFA800" fill-opacity="0.23"/>
<path d="M118.05 104.733H27.9161L14.0738 19.3853H134.672L118.05 104.733Z" fill="url(#paint15_linear)"/>
<defs>
<linearGradient id="paint0_linear" x1="54.1614" y1="38.4735" x2="51.1624" y2="46.1314" gradientUnits="userSpaceOnUse">
<stop stop-color="#FFE89E"/>
<stop offset="1" stop-color="#FFBF1A"/>
</linearGradient>
<linearGradient id="paint1_linear" x1="48.4067" y1="24.9311" x2="46.4105" y2="30.0284" gradientUnits="userSpaceOnUse">
<stop stop-color="#FFE89E"/>
<stop offset="1" stop-color="#FFBF1A"/>
</linearGradient>
<linearGradient id="paint2_linear" x1="34.9193" y1="9.99326" x2="31.9203" y2="17.6511" gradientUnits="userSpaceOnUse">
<stop stop-color="#FFE89E"/>
<stop offset="1" stop-color="#FFBF1A"/>
</linearGradient>
<linearGradient id="paint3_linear" x1="33.4867" y1="40.9152" x2="29.0745" y2="52.1817" gradientUnits="userSpaceOnUse">
<stop stop-color="#FFE89E"/>
<stop offset="1" stop-color="#FFBF1A"/>
</linearGradient>
<linearGradient id="paint4_linear" x1="92.743" y1="38.4735" x2="95.742" y2="46.1314" gradientUnits="userSpaceOnUse">
<stop stop-color="#FFE89E"/>
<stop offset="1" stop-color="#FFBF1A"/>
</linearGradient>
<linearGradient id="paint5_linear" x1="98.4976" y1="24.9311" x2="100.494" y2="30.0284" gradientUnits="userSpaceOnUse">
<stop stop-color="#FFE89E"/>
<stop offset="1" stop-color="#FFBF1A"/>
</linearGradient>
<linearGradient id="paint6_linear" x1="111.985" y1="9.99326" x2="114.984" y2="17.6511" gradientUnits="userSpaceOnUse">
<stop stop-color="#FFE89E"/>
<stop offset="1" stop-color="#FFBF1A"/>
</linearGradient>
<linearGradient id="paint7_linear" x1="113.418" y1="40.9152" x2="117.83" y2="52.1817" gradientUnits="userSpaceOnUse">
<stop stop-color="#FFE89E"/>
<stop offset="1" stop-color="#FFBF1A"/>
</linearGradient>
<linearGradient id="paint8_linear" x1="58.0015" y1="92.9402" x2="22.1913" y2="191.572" gradientUnits="userSpaceOnUse">
<stop stop-color="#FFD481"/>
<stop offset="1" stop-color="#FA620C"/>
</linearGradient>
<linearGradient id="paint9_linear" x1="43.317" y1="100.5" x2="151.997" y2="216.639" gradientUnits="userSpaceOnUse">
<stop stop-color="#FFD481"/>
<stop offset="0.83311" stop-color="#FA620C"/>
</linearGradient>
<linearGradient id="paint10_linear" x1="29.1669" y1="97.3904" x2="26.2593" y2="139.413" gradientUnits="userSpaceOnUse">
<stop stop-color="#FFD481"/>
<stop offset="1" stop-color="#FA620C"/>
</linearGradient>
<linearGradient id="paint11_linear" x1="122.426" y1="97.3904" x2="127.598" y2="138.971" gradientUnits="userSpaceOnUse">
<stop stop-color="#FFD481"/>
<stop offset="1" stop-color="#FA620C"/>
</linearGradient>
<linearGradient id="paint12_linear" x1="60.4812" y1="75.948" x2="58.8661" y2="98.8668" gradientUnits="userSpaceOnUse">
<stop stop-color="#FF9F81"/>
<stop offset="1" stop-color="#F53838"/>
</linearGradient>
<linearGradient id="paint13_linear" x1="86.8598" y1="64.9787" x2="85.2991" y2="87.1252" gradientUnits="userSpaceOnUse">
<stop stop-color="#FF9F81"/>
<stop offset="1" stop-color="#F53838"/>
</linearGradient>
<linearGradient id="paint14_linear" x1="68.8301" y1="46.1854" x2="67.5715" y2="64.0444" gradientUnits="userSpaceOnUse">
<stop stop-color="#FF9F81"/>
<stop offset="1" stop-color="#F53838"/>
</linearGradient>
<linearGradient id="paint15_linear" x1="73.3818" y1="19.3853" x2="73.3818" y2="200.709" gradientUnits="userSpaceOnUse">
<stop stop-color="white" stop-opacity="0"/>
<stop offset="1" stop-color="#FE9277"/>
</linearGradient>
</defs>
</svg>
